<svg width="50px" height="50px" viewBox="-7.2 -7.2 62.40 62.40" xmlns="http://www.w3.org/2000/svg" fill="" transform="rotate(0)matrix(1, 0, 0, 1, 0, 0)" stroke="" stroke-width="3.6"><g id="SVGRepo_bgCarrier" stroke-width="0" transform="translate(0,0), scale(1)"><path transform="translate(-7.2, -7.2), scale(3.9000000000000004)" fill="#F18245" d="M9.166.33a2.25 2.25 0 00-2.332 0l-5.25 3.182A2.25 2.25 0 00.5 5.436v5.128a2.25 2.25 0 001.084 1.924l5.25 3.182a2.25 2.25 0 002.332 0l5.25-3.182a2.25 2.25 0 001.084-1.924V5.436a2.25 2.25 0 00-1.084-1.924L9.166.33z" strokewidth="0"></path></g><g id="SVGRepo_tracerCarrier" stroke-linecap="round" stroke-linejoin="round" stroke="#CCCCCC" stroke-width="0.096"></g><g id="SVGRepo_iconCarrier"> <defs> <style>.c{fill:none;stroke:#D0F9EB;stroke-linecap:round;stroke-linejoin:round;}</style> </defs> <g id="a"> <g> <line class="c" x1="15.8808" y1="11.85" x2="24" y2="24"></line> <line class="c" x1="32.1192" y1="11.85" x2="24" y2="24"></line> <line class="c" x1="24" y1="36.15" x2="24" y2="24"></line> </g> </g> <g id="b"> <circle class="c" cx="24" cy="24" r="21.5"></circle> </g> </g></svg>